<svg xmlns="http://www.w3.org/2000/svg" viewBox="0 0 64.33 16.12"><title>ambev</title><g id="Layer_2" data-name="Layer 2"><g id="Camada_1" data-name="Camada 1"><path d="M41.79,10c0,4-2.65,6.06-4.88,6.07a3.93,3.93,0,0,1-3.13-1.38v1.18H30.54V0h3.3V5.38A3.83,3.83,0,0,1,36.94,4c2.22,0,4.85,2,4.85,6.07M48.2,4c-3,0-5.63,2.19-5.63,6.07a5.8,5.8,0,0,0,5.89,6.08,6.22,6.22,0,0,0,4-1.27l.3-2.81a6.69,6.69,0,0,1-3.94,1.19,2.71,2.71,0,0,1-2.93-1.94H53.2a7.34,7.34,0,0,0,.06-.95C53.26,6.16,50.88,4,48.2,4M33.73,10.05c0,1.87,1,3.06,2.36,3.06s2.34-1.16,2.34-3.06S37.52,7,36.09,7s-2.36,1.24-2.36,3.05M25.07,4c1.72,0,3.79.92,3.79,4.51V13.6A2.39,2.39,0,0,0,30,15.91H26.56a3.15,3.15,0,0,1-1-2.58V8.86C25.56,7.59,25,7,24.08,7s-1.64.88-1.64,2.29v4.09c0,1.6.28,2,.94,2.57H19.94a3.46,3.46,0,0,1-.8-2.58V8.86c0-1.27-.58-1.9-1.49-1.9S16,7.84,16,9.25v6.66H12.7V4.2h3.16V5.35A3.38,3.38,0,0,1,18.76,4a3.37,3.37,0,0,1,3,1.71A3.87,3.87,0,0,1,25.07,4M4.84,16.11A3.89,3.89,0,0,0,8,14.73v1.18h3.3V4.2H8V5.38A3.87,3.87,0,0,0,4.84,4C2.63,4,0,6,0,10s2.65,6.06,4.87,6.07Zm3.22-6c0,1.86-1,3-2.36,3s-2.34-1.15-2.34-3S4.27,7,5.7,7s2.36,1.24,2.36,3.06M58.57,12.2h0l2.2-8h3.54l-3.92,11.7H56.7L52.76,4.21h3.57ZM48,6.75a2.06,2.06,0,0,1,2,2.12H45.9A2.16,2.16,0,0,1,48,6.75"/></g></g></svg>